<?xml version="1.0" encoding="iso-8859-1"?>
<!-- Generator: Adobe Illustrator 19.0.0, SVG Export Plug-In . SVG Version: 6.00 Build 0)  -->
<svg version="1.1" id="Layer_1" xmlns="http://www.w3.org/2000/svg" xmlns:xlink="http://www.w3.org/1999/xlink" x="0px" y="0px"
	 viewBox="0 0 300 300" style="enable-background:new 0 0 300 300;" xml:space="preserve">
		<g>
			<path d="M154.839,179.032v-48.387c0-24.01-19.534-43.548-43.548-43.548h-6.561c9.198-7.432,15.281-18.523,16.094-31.035
				c6.116-4.123,9.823-10.965,9.823-18.494v-8.535c0-9.247-6.518-16.998-15.194-18.905C113.589,4.263,108.087,0,101.613,0H52.984
				c-15.876,0-28.79,12.915-28.79,28.79c0,7.689,2.995,14.918,8.434,20.356l1.244,1.244v2.835c0,13.674,6.348,25.882,16.239,33.871
				H43.55C19.534,87.097,0,106.635,0,130.645v48.387c0,16.011,13.021,29.032,29.032,29.032V300h96.774v-91.935
				C141.818,208.065,154.839,195.044,154.839,179.032z M105.378,104.003l-8.603,4.297v14.768l-14.516,8.71v-0.252L95.29,96.774
				h7.678L105.378,104.003z M33.871,28.789c0-10.537,8.574-19.112,19.113-19.112h48.629c2.671,0,4.839,2.173,4.839,4.839v4.839
				h4.839c5.337,0,9.677,4.34,9.677,9.677v8.535c0,2.235-0.576,4.365-1.621,6.223c-3.271-9.242-11.216-16.452-21.247-18.46
				l-7.761-1.548l-5.835,5.84c-2.739,2.739-6.382,4.248-10.263,4.248h-12.17c-8.482,0-16.539,2.768-23.134,7.877
				C35.666,38.205,33.871,33.637,33.871,28.789z M43.548,53.226v-2.705c5.139-4.49,11.632-6.973,18.523-6.973H74.24
				c6.465,0,12.542-2.516,17.11-7.084l2.177-2.177l2.676,0.532c8.739,1.752,15.087,9.494,15.087,18.406
				c0,18.677-15.198,33.871-33.871,33.871S43.548,71.903,43.548,53.226z M51.871,96.774h7.674l13.035,34.752v0.252l-14.516-8.71
				V108.3l-8.598-4.297L51.871,96.774z M29.032,198.387c-10.674,0-19.355-8.681-19.355-19.355h19.355V198.387z M72.581,290.323
				H38.71v-9.677h33.871V290.323z M72.581,270.968H38.71v-150h-9.677v48.387H9.677v-38.71c0-18.034,14.178-32.777,31.965-33.774
				L37.631,108.9l10.756,5.381v14.265l24.194,14.516V270.968z M69.885,96.774h15.068l-7.534,20.09L69.885,96.774z M116.129,290.323
				H82.258v-9.677h33.871V290.323z M125.806,198.387v-19.355h19.355C145.161,189.706,136.481,198.387,125.806,198.387z
				 M145.161,169.355h-19.355v-48.387h-9.677v150H82.258V143.061l24.194-14.516V114.28l10.756-5.381l-4.011-12.029
				c17.787,0.998,31.964,15.741,31.964,33.775V169.355z"/>
			<path d="M275.806,19.355h-0.89c-2.003-5.618-7.326-9.677-13.626-9.677h-14.516V38.71h14.516c6.3,0,11.623-4.06,13.626-9.677h0.89
				c8.003,0,14.516,6.513,14.516,14.516v9.677c0,29.347-23.879,53.226-53.226,53.226S183.87,82.573,183.87,53.226v-9.677
				c0-8.003,6.513-14.516,14.516-14.516h0.89c2.003,5.618,7.326,9.677,13.626,9.677h14.516V9.677h-14.516
				c-6.3,0-11.623,4.06-13.626,9.677h-0.89c-13.34,0-24.194,10.853-24.194,24.194v9.677c0,33.053,25.64,60.169,58.065,62.656
				v164.763c0,5.337-4.34,9.677-9.677,9.677c-5.337,0-9.677-4.34-9.677-9.677v-14.516c0-10.674-8.681-19.355-19.355-19.355h-5.327
				c-2.25-11.027-12.019-19.355-23.705-19.355c-13.34,0-24.194,10.853-24.194,24.194s10.853,24.194,24.194,24.194
				c11.681,0,21.455-8.327,23.705-19.355h5.327c5.337,0,9.677,4.34,9.677,9.677v14.516c0,10.674,8.681,19.355,19.355,19.355
				s19.355-8.681,19.355-19.355V115.882C274.36,113.395,300,86.279,300,53.226v-9.677C300,30.208,289.147,19.355,275.806,19.355z
				 M261.29,29.032h-4.839v-9.677h4.839c2.671,0,4.839,2.173,4.839,4.839C266.129,26.86,263.961,29.032,261.29,29.032z
				 M212.903,19.355h4.839v9.677h-4.839c-2.671,0-4.839-2.173-4.839-4.839S210.232,19.355,212.903,19.355z M164.516,266.129
				c-8.003,0-14.516-6.513-14.516-14.516s6.513-14.516,14.516-14.516c8.003,0,14.516,6.513,14.516,14.516
				S172.519,266.129,164.516,266.129z"/>
		</g>
</svg>
