<svg width="48px" height="48px" viewBox="0 0 48 48" xmlns="http://www.w3.org/2000/svg"><title>Free Medical icons</title><path d="M29.4,48a17.48,17.48,0,0,1-5.9-1.16A37.64,37.64,0,0,1,9.68,37.27,37.63,37.63,0,0,1,.85,23c-1.58-5.21-1-9.49,1.75-12.06L7,6.79A6,6,0,0,1,15.44,7l4.13,4.35a6,6,0,0,1-.23,8.48L17,22.08l8.26,8.71,2.35-2.24a6,6,0,0,1,8.49.22l4.13,4.35A6,6,0,0,1,40,41.62l-4.35,4.13A8.78,8.78,0,0,1,29.4,48ZM11.08,9.14a2,2,0,0,0-1.37.55L5.36,13.82h0c-1.53,1.45-1.78,4.37-.67,8a33.61,33.61,0,0,0,7.9,12.71,33.61,33.61,0,0,0,12.27,8.57c3.56,1.29,6.49,1.2,8-.25l4.35-4.13a2,2,0,0,0,.07-2.83l-4.13-4.35a2,2,0,0,0-2.83-.08l-3.8,3.62a1.93,1.93,0,0,1-1.43.55,2,2,0,0,1-1.4-.62l-11-11.62a2,2,0,0,1,.08-2.83l3.81-3.61a2,2,0,0,0,.08-2.83L12.54,9.76a2,2,0,0,0-1.4-.62H11.08Z" fill="#2161ff"/><rect x="32" y="5" width="6" height="16" rx="1" ry="1" transform="translate(22 48) rotate(-90)" fill="#a6c7ff"/><rect x="32" y="5" width="6" height="16" rx="1" ry="1" transform="translate(70 26) rotate(-180)" fill="#a6c7ff"/><rect width="48" height="48" fill="none"/></svg>