<?xml version="1.0" encoding="iso-8859-1"?>
<!-- Generator: Adobe Illustrator 18.0.0, SVG Export Plug-In . SVG Version: 6.00 Build 0)  -->
<!DOCTYPE svg PUBLIC "-//W3C//DTD SVG 1.1//EN" "http://www.w3.org/Graphics/SVG/1.1/DTD/svg11.dtd">
<svg version="1.1" id="Capa_1" xmlns="http://www.w3.org/2000/svg" xmlns:xlink="http://www.w3.org/1999/xlink" x="0px" y="0px"
	 viewBox="0 0 468.529 468.529" style="enable-background:new 0 0 468.529 468.529;" xml:space="preserve">
<g>
	<path d="M260.487,267.113c-1.221-2.89-4.151-4.781-7.302-4.617c-3.131,0.163-5.872,2.31-6.796,5.306
		c-2.04,6.613,5.615,12.2,11.339,8.411C260.665,274.268,261.86,270.366,260.487,267.113
		C260.297,266.663,260.677,267.563,260.487,267.113z"/>
	<path d="M199.337,107.863c1.764,4.18,6.949,5.899,10.842,3.518c4.107-2.511,4.704-8.283,1.388-11.698
		c-2.955-2.868-7.655-2.868-10.61,0C198.855,101.846,198.18,105.061,199.337,107.863
		C199.527,108.313,199.147,107.403,199.337,107.863z"/>
	<path d="M255.337,107.863c1.745,4.135,6.823,5.871,10.715,3.593c4.206-2.461,4.873-8.314,1.515-11.773
		c-2.529-2.455-6.45-2.894-9.421-0.962C255.156,100.666,253.98,104.576,255.337,107.863
		C255.527,108.313,255.147,107.403,255.337,107.863z"/>
	<path d="M461.029,366.452h-20.263v-236.15c0-15.775-12.839-28.61-28.62-28.61h-95.287c-7.356-38.907-41.583-68.432-82.597-68.432
		s-75.241,29.525-82.597,68.432H56.386c-15.776,0-28.61,12.834-28.61,28.61v236.15H7.5c-4.142,0-7.5,3.358-7.5,7.5v27.488
		c0,18.653,15.175,33.828,33.828,33.828h400.873c18.653,0,33.828-15.175,33.828-33.828v-27.488
		C468.529,369.81,465.171,366.452,461.029,366.452z M199.132,193.7c-31.361,13.62-53.352,44.889-53.352,81.202v62.081H72.246
		v-190.81h83.031C162.989,167.234,178.909,184.358,199.132,193.7z M206.922,206.715l16.347,18.612l-20.85,15.551l-7.575-27.943
		C198.648,210.507,202.686,208.42,206.922,206.715z M182.089,223.215l8.737,32.229c0.649,2.396,2.443,4.316,4.79,5.126
		c0.798,0.276,1.625,0.411,2.448,0.411c1.595,0,3.171-0.509,4.484-1.488l24.213-18.06v95.547H160.78v-62.08
		C160.78,254.766,168.926,236.501,182.089,223.215z M307.743,336.981h-65.981v-95.549l24.208,18.061
		c1.313,0.98,2.89,1.489,4.485,1.489c0.823,0,1.65-0.135,2.448-0.411c2.347-0.811,4.141-2.73,4.79-5.127l8.736-32.233
		c13.166,13.286,21.314,31.553,21.314,51.691V336.981z M266.101,240.876l-20.842-15.549l16.341-18.613
		c4.234,1.704,8.271,3.79,12.074,6.217L266.101,240.876z M245.529,202.284l-11.265,12.831l-11.27-12.831
		c3.674-0.568,7.437-0.865,11.268-0.865C238.092,201.419,241.855,201.716,245.529,202.284z M269.391,193.7
		c20.224-9.341,36.143-26.465,43.856-47.527h83.039v190.81h-73.542v-62.081C322.743,238.588,300.752,207.32,269.391,193.7z
		 M234.262,48.261c38.091,0,69.08,30.989,69.08,69.079c0,38.091-30.989,69.08-69.08,69.08s-69.08-30.989-69.08-69.08
		C165.182,79.25,196.171,48.261,234.262,48.261z M42.775,130.302c0-7.504,6.105-13.61,13.61-13.61h93.813
		c-0.002,0.217-0.016,0.43-0.016,0.647c0,4.712,0.409,9.329,1.158,13.833H64.746c-4.142,0-7.5,3.358-7.5,7.5v205.81
		c0,4.142,3.358,7.5,7.5,7.5h339.04c4.142,0,7.5-3.358,7.5-7.5v-205.81c0-4.142-3.358-7.5-7.5-7.5h-86.602
		c0.749-4.503,1.158-9.12,1.158-13.833c0-0.217-0.015-0.431-0.016-0.647h93.821c7.51,0,13.62,6.105,13.62,13.61v236.15H42.775
		V130.302z M292.104,381.452c-2.758,5.479-8.421,9.256-14.962,9.256h-85.75c-6.541,0-12.204-3.776-14.962-9.256H292.104z
		 M453.529,401.44c0,10.382-8.446,18.828-18.828,18.828H33.828C23.446,420.268,15,411.822,15,401.44v-19.988h20.275h125.263
		c3.38,13.901,15.927,24.256,30.854,24.256h85.75c14.927,0,27.473-10.354,30.854-24.256h125.271h20.263V401.44z"/>
</g>
<g>
</g>
<g>
</g>
<g>
</g>
<g>
</g>
<g>
</g>
<g>
</g>
<g>
</g>
<g>
</g>
<g>
</g>
<g>
</g>
<g>
</g>
<g>
</g>
<g>
</g>
<g>
</g>
<g>
</g>
</svg>
