<?xml version="1.0" encoding="iso-8859-1"?>
<!-- Generator: Adobe Illustrator 19.0.0, SVG Export Plug-In . SVG Version: 6.00 Build 0)  -->
<svg class="svg" width="200px" height="200px" version="1.1" id="Layer_1" xmlns="http://www.w3.org/2000/svg" xmlns:xlink="http://www.w3.org/1999/xlink" x="0px" y="0px"
	 viewBox="0 0 226.262 226.262" style="enable-background:new 0 0 226.262 226.262;" xml:space="preserve">
			<path d="M189.909,0H36.354c-6.678,0-12.112,5.441-12.112,12.129v202.004c0,6.688,5.433,12.129,12.112,12.129h153.555
				c6.678,0,12.111-5.441,12.111-12.129V12.129C202.02,5.441,196.587,0,189.909,0z M193.939,214.133
				c0,2.232-1.807,4.048-4.031,4.048H36.354c-2.223,0-4.031-1.817-4.031-4.048V12.129c0-2.232,1.807-4.048,4.031-4.048h153.555
				c2.223,0,4.03,1.817,4.03,4.048V214.133z"/>
			<path d="M90.909,20.202H80.808h-8.081H62.626c-10.026,0-18.182,8.156-18.182,18.182S52.6,56.566,62.626,56.566h10.101h8.081
				h10.101c10.026,0,18.182-8.156,18.182-18.182S100.935,20.202,90.909,20.202z M72.727,48.485H62.626
				c-5.569,0-10.101-4.532-10.101-10.101c0-5.569,4.532-10.101,10.101-10.101h10.101V48.485z M90.909,48.485H80.808V28.283h10.101
				c5.569,0,10.101,4.532,10.101,10.101C101.01,43.953,96.478,48.485,90.909,48.485z"/>
			<path d="M163.636,20.202h-10.101h-8.081h-10.101c-10.026,0-18.182,8.156-18.182,18.182s8.156,18.182,18.182,18.182h10.101h8.081
				h10.101c10.026,0,18.182-8.156,18.182-18.182S173.662,20.202,163.636,20.202z M145.455,48.485h-10.101
				c-5.569,0-10.101-4.532-10.101-10.101c0-5.569,4.532-10.101,10.101-10.101h10.101V48.485z M163.636,48.485h-10.101V28.283h10.101
				c5.569,0,10.101,4.532,10.101,10.101C173.737,43.953,169.206,48.485,163.636,48.485z"/>
			<path d="M90.909,64.646H80.808h-8.081H62.626c-10.026,0-18.182,8.156-18.182,18.182S52.6,101.01,62.626,101.01h10.101h8.081
				h10.101c10.026,0,18.182-8.156,18.182-18.182S100.935,64.646,90.909,64.646z M72.727,92.929H62.626
				c-5.569,0-10.101-4.532-10.101-10.101c0-5.569,4.532-10.101,10.101-10.101h10.101V92.929z M90.909,92.929H80.808V72.727h10.101
				c5.569,0,10.101,4.532,10.101,10.101C101.01,88.397,96.478,92.929,90.909,92.929z"/>
			<path d="M163.636,64.646h-10.101h-8.081h-10.101c-10.026,0-18.182,8.156-18.182,18.182s8.156,18.182,18.182,18.182h10.101h8.081
				h10.101c10.026,0,18.182-8.156,18.182-18.182S173.662,64.646,163.636,64.646z M145.455,92.929h-10.101
				c-5.569,0-10.101-4.532-10.101-10.101c0-5.569,4.532-10.101,10.101-10.101h10.101V92.929z M163.636,92.929h-10.101V72.727h10.101
				c5.569,0,10.101,4.532,10.101,10.101C173.737,88.397,169.206,92.929,163.636,92.929z"/>
			<path d="M90.909,109.091H80.808h-8.081H62.626c-10.026,0-18.182,8.156-18.182,18.182s8.156,18.182,18.182,18.182h10.101h8.081
				h10.101c10.026,0,18.182-8.156,18.182-18.182S100.935,109.091,90.909,109.091z M72.727,137.374H62.626
				c-5.569,0-10.101-4.532-10.101-10.101c0-5.569,4.532-10.101,10.101-10.101h10.101V137.374z M90.909,137.374H80.808v-20.202
				h10.101c5.569,0,10.101,4.532,10.101,10.101C101.01,132.842,96.478,137.374,90.909,137.374z"/>
			<path d="M163.636,109.091h-10.101h-8.081h-10.101c-10.026,0-18.182,8.156-18.182,18.182s8.156,18.182,18.182,18.182h10.101h8.081
				h10.101c10.026,0,18.182-8.156,18.182-18.182S173.662,109.091,163.636,109.091z M145.455,137.374h-10.101
				c-5.569,0-10.101-4.532-10.101-10.101c0-5.569,4.532-10.101,10.101-10.101h10.101V137.374z M163.636,137.374h-10.101v-20.202
				h10.101c5.569,0,10.101,4.532,10.101,10.101C173.737,132.842,169.206,137.374,163.636,137.374z"/>
			<path d="M90.909,153.535H80.808h-8.081H62.626c-10.026,0-18.182,8.156-18.182,18.182s8.156,18.182,18.182,18.182h10.101h8.081
				h10.101c10.026,0,18.182-8.156,18.182-18.182S100.935,153.535,90.909,153.535z M72.727,181.818H62.626
				c-5.569,0-10.101-4.532-10.101-10.101c0-5.569,4.532-10.101,10.101-10.101h10.101V181.818z M90.909,181.818H80.808v-20.202
				h10.101c5.569,0,10.101,4.532,10.101,10.101C101.01,177.286,96.478,181.818,90.909,181.818z"/>
			<path d="M155.12,161.093l-9.076,4.427l-0.001-0.002l-16.341,7.972c-4.36,2.125-7.633,5.826-9.217,10.417
				c-1.584,4.597-1.284,9.531,0.844,13.895c3.149,6.453,9.634,10.21,16.373,10.21c2.671,0,5.384-0.59,7.941-1.837l9.375-4.574
				l16.046-7.823c9.008-4.396,12.764-15.301,8.371-24.314C175.038,160.456,164.135,156.708,155.12,161.093z M142.101,198.911
				c-5.009,2.446-11.066,0.355-13.508-4.652c-1.184-2.423-1.35-5.163-0.467-7.718c0.88-2.551,2.697-4.606,5.118-5.786l9.079-4.429
				l1.824,3.739l7.031,14.418L142.101,198.911z M167.519,186.514l-9.078,4.429l-8.855-18.159l9.077-4.426
				c5.009-2.44,11.066-0.353,13.506,4.648C174.609,178.013,172.524,184.073,167.519,186.514z"/>
</svg>
