<svg width="48px" height="48px" viewBox="0 0 48 48" xmlns="http://www.w3.org/2000/svg"><title>Free Medical icons</title><path d="M39,46a7,7,0,0,0,0-14H34V46h5Z" fill="#a6c7ff"/><polyline points="1.5 25.5 15.5 25.5 15.5 39.5 1.5 39.5" fill="#a6c7ff"/><path d="M26,14H6a3,3,0,0,1-3-3V3A3,3,0,0,1,6,0H26a3,3,0,0,1,3,3v8A3,3,0,0,1,26,14ZM7,10H25V4H7v6Z" fill="#2161ff"/><path d="M28,48H3a3,3,0,0,1-3-3V22.88a6,6,0,0,1,4.1-5.69L6,16.56V12h4v6a2,2,0,0,1-1.37,1.9L5.37,21A2,2,0,0,0,4,22.88V44H28v4Z" fill="#2161ff"/><path d="M32,33H28V22.88A2,2,0,0,0,26.63,21L23.37,19.9A2,2,0,0,1,22,18V12h4v4.56l1.9,0.63A6,6,0,0,1,32,22.88V33Z" fill="#2161ff"/><path d="M39,48H29a9,9,0,0,1,0-18H39A9,9,0,0,1,39,48ZM29,34a5,5,0,0,0,0,10H39a5,5,0,0,0,0-10H29Z" fill="#2161ff"/><rect width="48" height="48" fill="none"/></svg>