<?xml version="1.0" encoding="iso-8859-1"?>
<!-- Generator: Adobe Illustrator 18.0.0, SVG Export Plug-In . SVG Version: 6.00 Build 0)  -->
<!DOCTYPE svg PUBLIC "-//W3C//DTD SVG 1.1//EN" "http://www.w3.org/Graphics/SVG/1.1/DTD/svg11.dtd">
<svg class="svg" width="200px" height="200px" version="1.1" id="Capa_1" xmlns="http://www.w3.org/2000/svg" xmlns:xlink="http://www.w3.org/1999/xlink" x="0px" y="0px"
	 viewBox="0 0 60 60" style="enable-background:new 0 0 60 60;" xml:space="preserve">
<g>
	<circle cx="46" cy="5" r="1"/>
	<circle cx="33" cy="24" r="1"/>
	<path d="M57,33V19c0-4.411-3.589-8-8-8s-8,3.589-8,8v14c0,4.411,3.589,8,8,8S57,37.411,57,33z M49,13c3.309,0,6,2.691,6,6v6H43v-6
		C43,15.691,45.691,13,49,13z M49,39c-3.309,0-6-2.691-6-6v-6h12v6C55,36.309,52.309,39,49,39z"/>
	<path d="M22.234,36.452l-9.899,9.899C10.829,47.857,10,49.866,10,52.008c0,2.143,0.829,4.151,2.335,5.657
		C13.84,59.171,15.849,60,17.992,60c2.142,0,4.151-0.829,5.657-2.335l9.899-9.899c3.119-3.119,3.119-8.194,0-11.313
		C30.428,33.333,25.353,33.333,22.234,36.452z M22.234,56.251C21.106,57.379,19.6,58,17.992,58c-1.608,0-3.115-0.621-4.243-1.749
		S12,53.617,12,52.008c0-1.608,0.621-3.115,1.749-4.243l4.243-4.243l8.485,8.485L22.234,56.251z M32.134,46.352l-4.243,4.243
		l-8.485-8.485l4.243-4.243c1.17-1.169,2.706-1.754,4.243-1.754c1.536,0,3.073,0.585,4.243,1.754
		C34.473,40.206,34.473,44.012,32.134,46.352z"/>
	<path d="M13.234,23.548c1.56,1.56,3.608,2.339,5.657,2.339c2.048,0,4.097-0.78,5.657-2.339c3.119-3.12,3.119-8.195,0-11.313
		l-9.899-9.899C13.143,0.829,11.134,0,8.992,0C6.849,0,4.84,0.829,3.335,2.335C1.829,3.84,1,5.849,1,7.992
		c0,2.142,0.829,4.151,2.335,5.657L13.234,23.548z M23.134,22.134c-2.34,2.339-6.146,2.339-8.485,0l-4.243-4.243l8.485-8.485
		l4.243,4.243C25.473,15.988,25.473,19.794,23.134,22.134z M4.749,3.749C5.877,2.621,7.383,2,8.992,2
		c1.608,0,3.115,0.621,4.243,1.749l4.243,4.243l-8.485,8.485l-4.243-4.243C3.621,11.106,3,9.6,3,7.992
		C3,6.383,3.621,4.877,4.749,3.749z"/>
	<path d="M11.171,36c0.552,0,1-0.448,1-1s-0.448-1-1-1h-3v-3c0-0.552-0.448-1-1-1s-1,0.448-1,1v3h-3c-0.552,0-1,0.448-1,1
		s0.448,1,1,1h3v3c0,0.552,0.448,1,1,1s1-0.448,1-1v-3H11.171z"/>
	<path d="M56.586,53.828l2.121-2.121c0.391-0.391,0.391-1.023,0-1.414s-1.023-0.391-1.414,0l-2.121,2.121l-2.121-2.121
		c-0.391-0.391-1.023-0.391-1.414,0s-0.391,1.023,0,1.414l2.121,2.121l-2.121,2.121c-0.391,0.391-0.391,1.023,0,1.414
		c0.195,0.195,0.451,0.293,0.707,0.293s0.512-0.098,0.707-0.293l2.121-2.121l2.121,2.121c0.195,0.195,0.451,0.293,0.707,0.293
		s0.512-0.098,0.707-0.293c0.391-0.391,0.391-1.023,0-1.414L56.586,53.828z"/>
</g>
</svg>
