<?xml version="1.0" encoding="utf-8"?>
<!-- Uploaded to SVGRepo https://www.svgrepo.com -->
<svg class="svg" version="1.1" id="social-distancing" xmlns="http://www.w3.org/2000/svg" xmlns:xlink="http://www.w3.org/1999/xlink" x="0px"
	 y="0px" viewBox="0 0 256 256" style="enable-background:new 0 0 256 256;" xml:space="preserve">
<path d="M204.7,26c0-14.1,11.4-25.5,25.5-25.5c14.1,0,25.5,11.4,25.5,25.5s-11.4,25.5-25.5,25.5C216.1,51.5,204.7,40.1,204.7,26z
	 M210.3,256h38.6l0.2-71.9c-1.6,0.4-3.2,0.6-4.8,0.6c-5.8,0-10.5-2.4-13.7-6.2c-2.2-3.2-3.8-7-3.8-11.1V95.9c0-2,1.3-3.2,3.2-3.2
	c2,0,3.2,1.3,3.2,3.2v71.7c0,6,5.1,11.1,11.1,11.1c6,0,11.1-5.1,11.1-11.1c0,0,0-95.1,0-95.3c0-8.1-6.4-14.3-14.3-14.3
	c-0.6,0-3.2,0.2-3.2,0.2c-20,3.4-35.4,28.8-35.3,50.3c0,0.4-0.2,3.6,0,4.8C202.6,131.9,210.3,256,210.3,256z M52.9,108.5
	c0,0.4,0.2,3.6,0,4.8c0,18.6-7.7,142.7-7.7,142.7H6.6l-0.2-71.9c1.6,0.4,3.2,0.6,4.8,0.6c5.8,0,10.5-2.4,13.7-6.2
	c2.2-3.2,3.8-7,3.8-11.1V95.9c0-2-1.3-3.2-3.2-3.2c-2,0-3.2,1.3-3.2,3.2v71.7c0,6-5.1,11.1-11.1,11.1c-6,0-11.1-5.1-11.1-11.1
	c0,0,0-95.1,0-95.3C0.1,64.2,6.5,58,14.4,58c0.6,0,3.2,0.2,3.2,0.2C37.6,61.6,53,87,52.9,108.5z M25.4,51.5
	c14.1,0,25.5-11.4,25.5-25.5S39.5,0.5,25.4,0.5S-0.1,11.9-0.1,26S11.3,51.5,25.4,51.5z M196.6,172.3l-37-21.4v14.2H95.9v-14.2
	l-37,21.4l37,21.4v-14.2h63.6v14.2L196.6,172.3z M71.9,228.8c-7.2,0-13,5.8-13,13c0,7.2,5.8,13,13,13s13-5.8,13-13
	C85,234.7,79.1,228.8,71.9,228.8z M109.1,228.8c-7.2,0-13,5.8-13,13c0,7.2,5.8,13,13,13c7.2,0,13-5.8,13-13
	C122.2,234.7,116.3,228.8,109.1,228.8z M146.3,228.8c-7.2,0-13,5.8-13,13c0,7.2,5.8,13,13,13s13-5.8,13-13
	C159.4,234.7,153.5,228.8,146.3,228.8z M183.5,228.8c-7.2,0-13,5.8-13,13c0,7.2,5.8,13,13,13s13-5.8,13-13
	C196.6,234.7,190.7,228.8,183.5,228.8z" style="stroke: rgb(47, 176, 35);"/>
</svg>
