<?xml version="1.0" encoding="iso-8859-1"?>
<svg version="1.1" class="svg" width="200px" height="200px" id="Layer_1" xmlns="http://www.w3.org/2000/svg" xmlns:xlink="http://www.w3.org/1999/xlink" x="0px" y="0px"
	 viewBox="0 0 470 470" style="enable-background:new 0 0 470 470;" xml:space="preserve">
<g>
	<g>
		<g>
			<path d="M359,0H141C89.521,0,47.238,40.105,43.74,90.711C26.526,94.103,13.5,109.306,13.5,127.5v30
				c0,18.11,12.904,33.261,30,36.745V372.5c0,53.762,43.738,97.5,97.5,97.5h218c53.762,0,97.5-43.738,97.5-97.5v-275
				C456.5,43.738,412.762,0,359,0z M43.5,178.71c-8.729-3.096-15-11.433-15-21.21v-30c0-9.777,6.271-18.114,15-21.21V178.71z
				 M441.5,372.5c0,45.49-37.01,82.5-82.5,82.5H141c-45.49,0-82.5-37.01-82.5-82.5v-275C58.5,52.01,95.51,15,141,15h218
				c45.49,0,82.5,37.01,82.5,82.5V372.5z"/>
			<path d="M419,325H81c-4.143,0-7.5,3.357-7.5,7.5v40c0,37.22,30.28,67.5,67.5,67.5h218c37.22,0,67.5-30.28,67.5-67.5v-40
				C426.5,328.357,423.143,325,419,325z M411.5,372.5c0,28.948-23.552,52.5-52.5,52.5h-50.5v-62.5c0-4.143-3.357-7.5-7.5-7.5
				s-7.5,3.357-7.5,7.5V425H141c-28.948,0-52.5-23.552-52.5-52.5V340h323V372.5z"/>
			<path d="M359,30H141c-37.22,0-67.5,30.28-67.5,67.5v205c0,4.143,3.357,7.5,7.5,7.5s7.5-3.357,7.5-7.5v-205
				C88.5,68.552,112.052,45,141,45h218c28.948,0,52.5,23.552,52.5,52.5v205c0,4.143,3.357,7.5,7.5,7.5s7.5-3.357,7.5-7.5v-205
				C426.5,60.28,396.22,30,359,30z"/>
			<path d="M191,248.708c2.35,0,4.563-1.102,5.981-2.975l62.451-82.545c5.932-7.842,9.067-17.192,9.067-27.042
				c0-24.732-20.122-44.854-44.854-44.854c-12.503,0-24.273,5.227-32.646,14.111c-8.372-8.885-20.143-14.111-32.646-14.111
				c-24.732,0-44.854,20.122-44.854,44.854c0,9.85,3.136,19.2,9.067,27.042l62.451,82.545
				C186.437,247.606,188.65,248.708,191,248.708z M128.5,136.146c0-16.462,13.393-29.854,29.854-29.854
				c10.82,0,20.818,5.886,26.093,15.361c1.323,2.378,3.831,3.853,6.553,3.853s5.229-1.475,6.553-3.853
				c5.274-9.476,15.272-15.361,26.093-15.361c16.462,0,29.854,13.393,29.854,29.854c0,6.556-2.085,12.777-6.03,17.991L191,228.777
				l-56.47-74.64C130.585,148.924,128.5,142.702,128.5,136.146z"/>
			<path d="M301,106.292h78c4.143,0,7.5-3.357,7.5-7.5s-3.357-7.5-7.5-7.5h-78c-4.143,0-7.5,3.357-7.5,7.5
				S296.857,106.292,301,106.292z"/>
			<path d="M301,153.764h78c4.143,0,7.5-3.357,7.5-7.5s-3.357-7.5-7.5-7.5h-78c-4.143,0-7.5,3.357-7.5,7.5
				S296.857,153.764,301,153.764z"/>
			<path d="M301,201.236h78c4.143,0,7.5-3.357,7.5-7.5s-3.357-7.5-7.5-7.5h-78c-4.143,0-7.5,3.357-7.5,7.5
				S296.857,201.236,301,201.236z"/>
			<path d="M301,248.708h78c4.143,0,7.5-3.357,7.5-7.5s-3.357-7.5-7.5-7.5h-78c-4.143,0-7.5,3.357-7.5,7.5
				S296.857,248.708,301,248.708z"/>
		</g>
	</g>
</g>
</svg>
