<?xml version="1.0" encoding="utf-8"?>
<svg class="svg" width="200px" height="200px" version="1.1" id="Layer_1" xmlns="http://www.w3.org/2000/svg" xmlns:xlink="http://www.w3.org/1999/xlink" x="0px" y="0px"
	 viewBox="0 0 612 792" enable-background="new 0 0 612 792" xml:space="preserve">
<g>
	<path fill-rule="evenodd" clip-rule="evenodd" style="stroke: #4a0707;" d="M612,593.577c-203.982,0-407.966,0-612,0
		C0,463.955,0,334.32,0,204.61c203.965,0,407.982,0,612,0C612,334.231,612,463.898,612,593.577z M304.648,516.259
		c91.374,0,182.746,0.004,274.116-0.019c2.449-0.001,4.959,0.005,7.341-0.481c11.877-2.433,19.266-11.934,19.271-24.753
		c0.025-61.238,0.027-122.475-0.035-183.711c-0.004-2.859-0.315-5.833-1.137-8.556c-3.2-10.591-12.29-16.768-24.3-16.769
		c-81.182-0.007-162.361-0.003-243.543-0.003c-102.09,0-204.18,0.105-306.271-0.119c-14.483-0.032-26.375,10.557-25.925,25.891
		c0.283,9.657,0.053,19.328,0.053,28.992c0,51.396,0.012,102.794-0.018,154.19c-0.003,6.094,1.479,11.662,5.371,16.408
		c5.338,6.512,12.369,8.982,20.699,8.976C121.73,516.232,213.189,516.259,304.648,516.259z M304.65,208.752
		c-69.668,0-139.336,0-209.005,0c-24.687,0-49.374-0.021-74.061,0.012c-9.647,0.013-17.151,7.057-17.312,16.511
		c-0.183,10.715-0.159,21.438,0,32.153c0.114,7.642,5.307,14.042,12.719,15.841c2.352,0.571,4.874,0.613,7.318,0.613
		c187.041,0.027,374.083,0.023,561.124,0.023c0.703,0,1.406,0.012,2.107-0.003c10.982-0.226,17.795-7.131,17.834-18.144
		c0.035-9.663,0.031-19.327-0.017-28.991c-0.009-1.744-0.096-3.54-0.515-5.22c-1.999-8.045-8.614-12.793-17.655-12.793
		C493.007,208.751,398.828,208.752,304.65,208.752z M304.669,588.841c95.331,0,190.661,0.01,285.991-0.067
		c2.085-0.002,4.39-0.615,6.208-1.628c5.084-2.83,8.227-7.314,8.345-13.182c0.23-11.415,0.236-22.843-0.012-34.256
		c-0.127-5.758-3.325-10.043-8.193-13.045c-3.275-2.021-6.907-2.276-10.651-2.276c-187.586,0.022-375.171,0.02-562.757,0.021
		c-0.878,0-1.757-0.013-2.635,0.009c-9.209,0.223-16.488,7.12-16.675,16.296c-0.22,10.803-0.128,21.613-0.028,32.419
		c0.077,8.285,7.71,15.891,16.262,15.868C115.238,588.747,209.954,588.841,304.669,588.841z"/>
	<path fill-rule="evenodd" clip-rule="evenodd" style="stroke: #4a0707;" d="M34.86,498.968c1.895-4.934,3.638-9.499,5.401-14.058
		c14.759-38.171,29.552-76.326,44.22-114.532c0.976-2.541,1.486-5.46,1.387-8.173c-0.213-5.836-4.731-9.835-10.546-9.84
		c-17.921-0.017-35.844-0.004-53.765-0.007c-4.64-0.001-5.539-1.223-4.044-5.562c4.137-12.014,8.354-24.001,12.377-36.053
		c0.686-2.053,1.58-2.622,3.683-2.62c67.645,0.059,135.291,0.042,202.936,0.05c76.606,0.009,153.213,0.021,229.818,0.077
		c4.373,0.003,8.819,0.003,13.099,0.757c6.553,1.154,11.564,5.007,14.875,10.78c32.447,56.617,64.857,113.255,97.265,169.895
		c2.906,5.078,0.592,9.361-5.063,9.364c-58.771,0.026-117.543,0.036-176.317,0.05c-0.436,0-0.873,0-1.694,0
		c0.564-1.552,1.052-2.915,1.554-4.271c5.972-16.104,11.979-32.195,17.869-48.329c0.629-1.721,1.419-2.187,3.178-2.179
		c14.759,0.075,29.519,0.057,44.277,0.029c2.246-0.004,4.933,0.445,6.181-1.912c1.229-2.317-0.131-4.56-1.383-6.636
		c-15.58-25.846-31.236-51.646-46.632-77.603c-2.791-4.707-6.059-6.651-11.599-6.64c-77.572,0.156-155.146,0.103-232.717,0.164
		c-4.109,0.003-8.232,0.451-12.321,0.923c-4.157,0.479-7.18,2.82-8.863,6.615c-2.022,4.562-3.942,9.179-5.696,13.851
		c-15.455,41.187-30.871,82.39-46.264,123.601c-0.563,1.507-1.047,2.448-3.024,2.442c-25.389-0.084-50.777-0.055-76.167-0.061
		C36.37,499.09,35.854,499.031,34.86,498.968z"/>
	<path fill-rule="evenodd" clip-rule="evenodd" fill="none" style="stroke: #4a0707;" d="M126.243,499.097c6.706-17.912,13.268-35.438,19.852-53.023
		c1.213,0,2.262,0,3.313,0c44.097,0,88.194,0.008,132.291-0.024c1.999-0.001,4.07-0.095,5.977-0.618
		c3.137-0.863,4.177-3.396,2.382-6.116c-1.048-1.584-2.693-3.092-4.415-3.865c-17.029-7.645-34.138-15.106-51.205-22.665
		c-11.297-5.004-22.602-9.994-33.827-15.156c-7.402-3.404-9.771-7.813-8.376-15.871c1.149-6.641,2.834-13.186,4.202-19.791
		c0.319-1.538,0.915-2.173,2.604-2.169c28.197,0.052,56.394,0.037,84.592,0.044c0.508,0,1.017,0.09,1.772,0.162
		c-0.212,1.584-0.429,3.029-0.598,4.481c-0.517,4.463,1.235,7.392,5.347,9.11c20.207,8.452,40.417,16.898,60.601,25.405
		c2.087,0.88,4.082,2.038,5.997,3.263c9.917,6.353,13.486,14.596,10.441,25.913c-5.186,19.262-12.298,37.837-21.558,55.522
		c-5.2,9.933-13.464,15.068-24.912,15.079c-52.88,0.05-105.759,0.208-158.638,0.314
		C150.319,499.116,138.552,499.097,126.243,499.097z"/>
	<path fill-rule="evenodd" clip-rule="evenodd" fill="none" style="stroke: #4a0707;" d="M345.176,499.097c8.047-4.923,11.867-12.352,14.781-20.149
		c6.53-17.477,12.731-35.076,18.909-52.683c2.85-8.125,0.663-15.369-4.733-21.803c-4.418-5.265-9.907-9.14-15.97-12.273
		c-3.873-2-3.949-2.231-2.402-6.25c3.176-8.262,6.416-16.5,9.494-24.796c0.633-1.702,1.454-2.181,3.224-2.173
		c15.195,0.078,30.394,0.097,45.592,0.01c4.094-0.024,7.104,1.631,9.282,4.948c4.671,7.116,9.255,14.287,13.972,21.373
		c1.386,2.082,0.817,3.983,0.072,5.992c-7.596,20.455-15.188,40.911-22.774,61.368c-5.425,14.625-10.878,29.237-16.215,43.894
		c-0.714,1.957-1.607,2.615-3.739,2.6c-15.549-0.11-31.098-0.059-46.646-0.059C347.273,499.097,346.526,499.097,345.176,499.097z"/>
</g>
</svg>
