<?xml version="1.0" encoding="iso-8859-1"?>
<!-- Generator: Adobe Illustrator 19.0.0, SVG Export Plug-In . SVG Version: 6.00 Build 0)  -->
<svg class="svg" version="1.1" id="Capa_1" xmlns="http://www.w3.org/2000/svg" xmlns:xlink="http://www.w3.org/1999/xlink" x="0px" y="0px"
	 viewBox="0 0 470 470" style="enable-background:new 0 0 470 470;" xml:space="preserve">
<g>
	<path d="M308.699,184.699L186.297,307.102l-23.654-23.654l21.32-21.32l7.744,7.744c1.464,1.465,3.384,2.197,5.303,2.197
		s3.839-0.732,5.304-2.197c2.929-2.929,2.929-7.678-0.001-10.606l-7.743-7.743l21.32-21.32l7.744,7.744
		c1.465,1.464,3.385,2.197,5.304,2.197s3.839-0.732,5.304-2.197c2.929-2.929,2.929-7.678,0-10.606l-7.744-7.744l21.32-21.32
		l7.744,7.744c1.464,1.465,3.384,2.197,5.303,2.197s3.839-0.732,5.304-2.197c2.929-2.929,2.929-7.678-0.001-10.606l-7.744-7.743
		l21.32-21.32l7.743,7.743c1.465,1.465,3.384,2.197,5.304,2.197c1.919,0,3.839-0.732,5.303-2.197
		c2.93-2.929,2.93-7.677,0.001-10.606l-13.046-13.046c-1.099-1.099-2.453-1.785-3.872-2.06c-0.127-0.025-0.255-0.037-0.382-0.055
		c-0.11-0.016-0.22-0.037-0.331-0.048c-2.152-0.206-4.375,0.514-6.024,2.162L146.732,278.145c-1.406,1.406-2.196,3.314-2.196,5.303
		s0.79,3.897,2.196,5.303l34.261,34.26c1.465,1.464,3.385,2.197,5.304,2.197s3.839-0.732,5.304-2.197l127.706-127.706
		c2.929-2.929,2.929-7.678,0-10.606C316.377,181.771,311.629,181.771,308.699,184.699z" style="stroke: rgb(47, 176, 35);"/>
	<path d="M291.321,50.435c-2.93-2.929-7.678-2.929-10.607,0c-2.929,2.929-2.929,7.678,0,10.606l20.348,20.348l-186.149,186.15
		c-8.771,8.773-8.771,23.047,0,31.819l55.474,55.473c4.238,4.238,9.889,6.572,15.91,6.572c6.022,0,11.673-2.334,15.91-6.572
		l186.149-186.149l20.348,20.348c1.465,1.464,3.385,2.197,5.304,2.197s3.839-0.732,5.304-2.197c2.929-2.929,2.929-7.678,0-10.606
		L291.321,50.435z M191.599,344.226c-1.404,1.405-3.287,2.178-5.303,2.178c-2.015,0-3.898-0.774-5.303-2.179l-55.474-55.473
		c-2.924-2.924-2.924-7.683,0-10.607L311.669,91.997l66.08,66.08L191.599,344.226z" style="stroke: rgb(47, 176, 35);"/>
	<path d="M467.55,83.018l-22.822-22.822c0,0-0.001-0.001-0.001-0.001s-0.001-0.001-0.001-0.001L386.727,2.197
		c-2.93-2.929-7.678-2.929-10.607,0c-2.929,2.929-2.929,7.678,0,10.606l17.52,17.52l-45.305,45.306
		c-2.929,2.929-2.929,7.678,0,10.606c1.465,1.464,3.385,2.197,5.304,2.197s3.839-0.732,5.304-2.197l45.305-45.306l24.569,24.568
		l-45.306,45.306c-2.929,2.929-2.929,7.678,0,10.606c1.465,1.464,3.385,2.197,5.304,2.197s3.839-0.732,5.304-2.197l45.306-45.306
		l17.52,17.52c1.465,1.464,3.385,2.197,5.304,2.197s3.839-0.732,5.304-2.197C470.478,90.696,470.478,85.947,467.55,83.018z" style="stroke: rgb(47, 176, 35);"/>
	<path d="M145.24,350.898c-0.003-0.003-0.005-0.006-0.008-0.009s-0.006-0.005-0.009-0.008l-26.364-26.364c0,0,0-0.001-0.001-0.001
		s0,0-0.001-0.001l-7.07-7.071c-2.929-2.929-7.677-2.93-10.607,0c-2.929,2.929-2.929,7.678,0,10.606l1.768,1.768l-25.145,25.146
		c-3.298,3.298-5.114,7.692-5.114,12.375c0,4.682,1.816,9.077,5.113,12.374l1.066,1.066L2.45,457.197
		c-2.929,2.929-2.929,7.678,0,10.606C3.915,469.267,5.835,470,7.754,470s3.839-0.732,5.304-2.197l76.416-76.416l0.558,0.558
		c3.412,3.412,7.893,5.117,12.375,5.117c4.48,0,8.963-1.706,12.374-5.117l25.146-25.146l1.767,1.767
		c1.465,1.465,3.384,2.197,5.304,2.197c1.919,0,3.839-0.732,5.304-2.197c2.929-2.929,2.929-7.678,0-10.606L145.24,350.898z
		 M104.174,381.339c-0.956,0.957-2.576,0.959-3.534,0l-12.232-12.232c-0.626-0.626-0.72-1.376-0.72-1.767
		c0-0.392,0.094-1.141,0.721-1.768l25.146-25.146l15.767,15.767L104.174,381.339z" style="stroke: rgb(47, 176, 35);"/>
</g>
</svg>
