<svg class="svg" width="200px" height="200px" version="1.1" id="Capa_1" xmlns="http://www.w3.org/2000/svg" xmlns:xlink="http://www.w3.org/1999/xlink" x="0px" y="0px"
	 viewBox="0 0 494.999 494.999" style="enable-background:new 0 0 494.999 494.999;" xml:space="preserve">
<g>
	<path d="M485.284,72.095c-5.787-2.348-12.381-1.01-16.796,3.405l-32.876,32.876l-38.08-10.203l-10.203-38.08l33.552-33.552
		c4.431-4.431,5.758-10.799,3.465-16.621c-2.276-5.779-7.768-9.653-13.99-9.872c-15.158-0.529-30.086,3.23-44.376,11.178
		c-16.951,9.427-30.566,24.163-38.34,41.493c-7.68,17.122-9.568,34.962-5.63,53.095L105.814,322.009
		c-18.125-3.936-35.958-2.052-53.072,5.62c-17.325,7.765-32.061,21.372-41.494,38.314c-7.961,14.298-11.729,29.24-11.199,44.41
		c0.218,6.223,4.093,11.715,9.872,13.991c5.823,2.293,12.191,0.965,16.621-3.466l34.997-34.997l38.08,10.203l10.203,38.081
		L75.5,468.487c-4.416,4.416-5.752,11.01-3.405,16.799c2.352,5.801,7.916,9.61,14.174,9.704c0.403,0.006,0.805,0.009,1.208,0.009
		c14.156,0,28.101-3.744,41.464-11.136c16.896-9.345,30.51-24.047,38.335-41.397c7.749-17.182,9.666-35.085,5.713-53.282
		l216.195-216.195c18.161,3.945,36.031,2.044,53.183-5.669c17.329-7.792,32.034-21.366,41.406-38.223
		c7.662-13.78,11.436-28.188,11.217-42.823C494.896,80.013,491.086,74.447,485.284,72.095z M470.664,121.808
		c-7.813,14.051-20.047,25.356-34.448,31.831c-15.477,6.959-30.99,8.211-47.426,3.825c-2.586-0.689-5.344,0.051-7.237,1.943
		L159.408,381.552c-1.893,1.893-2.633,4.65-1.943,7.237c4.394,16.465,3.13,32.005-3.863,47.51
		c-6.503,14.419-17.839,26.65-31.921,34.438c-11.586,6.409-23.101,9.427-35.187,9.254c-0.169-0.003-0.362-0.005-0.498-0.342
		c-0.128-0.317-0.012-0.433,0.111-0.556l37.383-37.383c1.895-1.895,2.635-4.656,1.941-7.244l-12.445-46.445
		c-0.694-2.588-2.715-4.61-5.304-5.304l-46.445-12.445c-0.642-0.172-1.293-0.255-1.94-0.255c-1.963,0-3.879,0.772-5.304,2.197
		l-38.059,38.059c-0.128,0.128-0.229,0.229-0.518,0.116c-0.363-0.143-0.372-0.394-0.377-0.559
		c-0.44-12.576,2.606-24.544,9.313-36.589c7.871-14.135,20.131-25.473,34.524-31.924c15.445-6.923,30.928-8.161,47.332-3.783
		c2.587,0.69,5.345-0.051,7.237-1.943L335.59,113.446c1.893-1.893,2.633-4.651,1.943-7.237c-4.379-16.411-3.139-31.9,3.792-47.351
		c6.458-14.397,17.802-26.658,31.943-34.522c12.039-6.695,23.998-9.739,36.562-9.296c0.166,0.005,0.416,0.014,0.558,0.377
		c0.114,0.289,0.013,0.39-0.115,0.518L373.66,52.549c-1.895,1.895-2.635,4.656-1.941,7.244l12.445,46.445
		c0.694,2.588,2.715,4.61,5.304,5.304l46.445,12.445c2.588,0.694,5.35-0.047,7.244-1.941l35.938-35.938
		c0.123-0.123,0.237-0.24,0.554-0.111c0.338,0.137,0.341,0.332,0.344,0.503C480.174,98.643,477.122,110.193,470.664,121.808z"/>
	<path d="M338.196,146.196l-8,8c-2.929,2.929-2.929,7.678,0,10.606c1.464,1.464,3.384,2.197,5.303,2.197s3.839-0.732,5.303-2.197
		l8-8c2.929-2.929,2.929-7.678,0-10.606C345.874,143.267,341.125,143.267,338.196,146.196z"/>
	<path d="M314.196,170.196l-168,168c-2.929,2.929-2.929,7.678,0,10.606c1.464,1.464,3.384,2.197,5.303,2.197
		s3.839-0.732,5.303-2.197l168-168c2.929-2.929,2.929-7.678,0-10.606C321.874,167.267,317.125,167.267,314.196,170.196z"/>
</g>
</svg>
